<mxfile host="Electron" modified="2023-05-20T05:43:36.518Z" agent="Mozilla/5.0 (X11; Linux x86_64) AppleWebKit/537.36 (KHTML, like Gecko) draw.io/21.2.8 Chrome/112.0.5615.165 Electron/24.2.0 Safari/537.36" etag="MS-TqT1odP3PmbzyNN__" version="21.2.8" type="device">
  <diagram name="第 1 页" id="7snLEZBE_kpq7mTog-OJ">
    <mxGraphModel dx="970" dy="614" grid="1" gridSize="10" guides="1" tooltips="1" connect="1" arrows="1" fold="1" page="1" pageScale="1" pageWidth="827" pageHeight="1169" math="0" shadow="0">
      <root>
        <mxCell id="0" />
        <mxCell id="1" parent="0" />
        <mxCell id="GDLcqrUv6K1B01o7y3G4-48" value="" style="group" vertex="1" connectable="0" parent="1">
          <mxGeometry x="160" y="40" width="200" height="470" as="geometry" />
        </mxCell>
        <mxCell id="GDLcqrUv6K1B01o7y3G4-36" value="" style="group" vertex="1" connectable="0" parent="GDLcqrUv6K1B01o7y3G4-48">
          <mxGeometry width="200" height="420" as="geometry" />
        </mxCell>
        <mxCell id="GDLcqrUv6K1B01o7y3G4-1" value="&lt;b&gt;&lt;font style=&quot;font-size: 20px;&quot;&gt;ROS2&lt;/font&gt;&lt;/b&gt;" style="rounded=1;whiteSpace=wrap;html=1;fillColor=#f8cecc;strokeColor=#b85450;shadow=1;" vertex="1" parent="GDLcqrUv6K1B01o7y3G4-36">
          <mxGeometry y="200" width="200" height="60" as="geometry" />
        </mxCell>
        <mxCell id="GDLcqrUv6K1B01o7y3G4-2" value="" style="ellipse;whiteSpace=wrap;html=1;fillColor=#dae8fc;strokeColor=#6c8ebf;shadow=1;" vertex="1" parent="GDLcqrUv6K1B01o7y3G4-36">
          <mxGeometry y="40" width="200" height="100" as="geometry" />
        </mxCell>
        <mxCell id="GDLcqrUv6K1B01o7y3G4-3" value="" style="ellipse;whiteSpace=wrap;html=1;fillColor=#dae8fc;strokeColor=#6c8ebf;shadow=1;" vertex="1" parent="GDLcqrUv6K1B01o7y3G4-36">
          <mxGeometry y="320" width="200" height="100" as="geometry" />
        </mxCell>
        <mxCell id="GDLcqrUv6K1B01o7y3G4-4" value="&lt;b&gt;&lt;font style=&quot;font-size: 20px;&quot;&gt;话题通信&lt;/font&gt;&lt;/b&gt;" style="text;html=1;strokeColor=none;fillColor=none;align=center;verticalAlign=middle;whiteSpace=wrap;rounded=0;" vertex="1" parent="GDLcqrUv6K1B01o7y3G4-36">
          <mxGeometry x="40" width="120" height="30" as="geometry" />
        </mxCell>
        <mxCell id="GDLcqrUv6K1B01o7y3G4-5" value="&lt;b&gt;&lt;font style=&quot;font-size: 20px;&quot;&gt;发布方&lt;/font&gt;&lt;/b&gt;" style="text;html=1;strokeColor=none;fillColor=none;align=center;verticalAlign=middle;whiteSpace=wrap;rounded=0;" vertex="1" parent="GDLcqrUv6K1B01o7y3G4-36">
          <mxGeometry x="40" y="75" width="120" height="30" as="geometry" />
        </mxCell>
        <mxCell id="GDLcqrUv6K1B01o7y3G4-6" value="&lt;span style=&quot;font-size: 20px;&quot;&gt;&lt;b&gt;订阅方&lt;/b&gt;&lt;/span&gt;" style="text;html=1;strokeColor=none;fillColor=none;align=center;verticalAlign=middle;whiteSpace=wrap;rounded=0;" vertex="1" parent="GDLcqrUv6K1B01o7y3G4-36">
          <mxGeometry x="40" y="355" width="120" height="30" as="geometry" />
        </mxCell>
        <mxCell id="GDLcqrUv6K1B01o7y3G4-7" value="" style="endArrow=classic;html=1;rounded=0;exitX=0.282;exitY=1.005;exitDx=0;exitDy=0;exitPerimeter=0;entryX=0.286;entryY=-0.053;entryDx=0;entryDy=0;entryPerimeter=0;strokeWidth=2;strokeColor=#FF0000;" edge="1" parent="GDLcqrUv6K1B01o7y3G4-36" source="GDLcqrUv6K1B01o7y3G4-2" target="GDLcqrUv6K1B01o7y3G4-1">
          <mxGeometry width="50" height="50" relative="1" as="geometry">
            <mxPoint x="230" y="280" as="sourcePoint" />
            <mxPoint x="280" y="230" as="targetPoint" />
          </mxGeometry>
        </mxCell>
        <mxCell id="GDLcqrUv6K1B01o7y3G4-8" value="" style="endArrow=classic;html=1;rounded=0;exitX=0.282;exitY=1.005;exitDx=0;exitDy=0;exitPerimeter=0;entryX=0.286;entryY=-0.053;entryDx=0;entryDy=0;entryPerimeter=0;strokeWidth=2;strokeColor=#FF0000;" edge="1" parent="GDLcqrUv6K1B01o7y3G4-36">
          <mxGeometry width="50" height="50" relative="1" as="geometry">
            <mxPoint x="99.5" y="144" as="sourcePoint" />
            <mxPoint x="100.5" y="200" as="targetPoint" />
          </mxGeometry>
        </mxCell>
        <mxCell id="GDLcqrUv6K1B01o7y3G4-9" value="" style="endArrow=classic;html=1;rounded=0;exitX=0.282;exitY=1.005;exitDx=0;exitDy=0;exitPerimeter=0;entryX=0.286;entryY=-0.053;entryDx=0;entryDy=0;entryPerimeter=0;strokeWidth=2;strokeColor=#FF0000;" edge="1" parent="GDLcqrUv6K1B01o7y3G4-36">
          <mxGeometry width="50" height="50" relative="1" as="geometry">
            <mxPoint x="140" y="144" as="sourcePoint" />
            <mxPoint x="141" y="200" as="targetPoint" />
          </mxGeometry>
        </mxCell>
        <mxCell id="GDLcqrUv6K1B01o7y3G4-10" value="" style="endArrow=classic;html=1;rounded=0;exitX=0.282;exitY=1.005;exitDx=0;exitDy=0;exitPerimeter=0;entryX=0.286;entryY=-0.053;entryDx=0;entryDy=0;entryPerimeter=0;strokeWidth=2;strokeColor=#FF0000;" edge="1" parent="GDLcqrUv6K1B01o7y3G4-36">
          <mxGeometry width="50" height="50" relative="1" as="geometry">
            <mxPoint x="55" y="261" as="sourcePoint" />
            <mxPoint x="56" y="317" as="targetPoint" />
          </mxGeometry>
        </mxCell>
        <mxCell id="GDLcqrUv6K1B01o7y3G4-11" value="" style="endArrow=classic;html=1;rounded=0;exitX=0.282;exitY=1.005;exitDx=0;exitDy=0;exitPerimeter=0;entryX=0.286;entryY=-0.053;entryDx=0;entryDy=0;entryPerimeter=0;strokeWidth=2;strokeColor=#FF0000;" edge="1" parent="GDLcqrUv6K1B01o7y3G4-36">
          <mxGeometry width="50" height="50" relative="1" as="geometry">
            <mxPoint x="98.5" y="264" as="sourcePoint" />
            <mxPoint x="99.5" y="320" as="targetPoint" />
          </mxGeometry>
        </mxCell>
        <mxCell id="GDLcqrUv6K1B01o7y3G4-12" value="" style="endArrow=classic;html=1;rounded=0;exitX=0.282;exitY=1.005;exitDx=0;exitDy=0;exitPerimeter=0;entryX=0.286;entryY=-0.053;entryDx=0;entryDy=0;entryPerimeter=0;strokeWidth=2;strokeColor=#FF0000;" edge="1" parent="GDLcqrUv6K1B01o7y3G4-36">
          <mxGeometry width="50" height="50" relative="1" as="geometry">
            <mxPoint x="139" y="264" as="sourcePoint" />
            <mxPoint x="140" y="320" as="targetPoint" />
          </mxGeometry>
        </mxCell>
        <mxCell id="GDLcqrUv6K1B01o7y3G4-45" value="&lt;b&gt;&lt;font color=&quot;#ff0000&quot; style=&quot;font-size: 18px;&quot;&gt;特点：单项数据流&lt;/font&gt;&lt;/b&gt;" style="text;html=1;strokeColor=none;fillColor=none;align=center;verticalAlign=middle;whiteSpace=wrap;rounded=0;" vertex="1" parent="GDLcqrUv6K1B01o7y3G4-48">
          <mxGeometry x="10" y="440" width="180" height="30" as="geometry" />
        </mxCell>
        <mxCell id="GDLcqrUv6K1B01o7y3G4-49" value="" style="group" vertex="1" connectable="0" parent="1">
          <mxGeometry x="416" y="40" width="200" height="470" as="geometry" />
        </mxCell>
        <mxCell id="GDLcqrUv6K1B01o7y3G4-37" value="" style="group" vertex="1" connectable="0" parent="GDLcqrUv6K1B01o7y3G4-49">
          <mxGeometry width="200" height="420" as="geometry" />
        </mxCell>
        <mxCell id="GDLcqrUv6K1B01o7y3G4-13" value="&lt;b&gt;&lt;font style=&quot;font-size: 20px;&quot;&gt;ROS2&lt;/font&gt;&lt;/b&gt;" style="rounded=1;whiteSpace=wrap;html=1;fillColor=#f8cecc;strokeColor=#b85450;shadow=1;" vertex="1" parent="GDLcqrUv6K1B01o7y3G4-37">
          <mxGeometry y="200" width="200" height="60" as="geometry" />
        </mxCell>
        <mxCell id="GDLcqrUv6K1B01o7y3G4-14" value="" style="ellipse;whiteSpace=wrap;html=1;fillColor=#dae8fc;strokeColor=#6c8ebf;shadow=1;" vertex="1" parent="GDLcqrUv6K1B01o7y3G4-37">
          <mxGeometry y="40" width="200" height="100" as="geometry" />
        </mxCell>
        <mxCell id="GDLcqrUv6K1B01o7y3G4-15" value="" style="ellipse;whiteSpace=wrap;html=1;fillColor=#dae8fc;strokeColor=#6c8ebf;shadow=1;" vertex="1" parent="GDLcqrUv6K1B01o7y3G4-37">
          <mxGeometry y="320" width="200" height="100" as="geometry" />
        </mxCell>
        <mxCell id="GDLcqrUv6K1B01o7y3G4-16" value="&lt;b&gt;&lt;font style=&quot;font-size: 20px;&quot;&gt;服务通信&lt;/font&gt;&lt;/b&gt;" style="text;html=1;strokeColor=none;fillColor=none;align=center;verticalAlign=middle;whiteSpace=wrap;rounded=0;" vertex="1" parent="GDLcqrUv6K1B01o7y3G4-37">
          <mxGeometry x="40" width="120" height="30" as="geometry" />
        </mxCell>
        <mxCell id="GDLcqrUv6K1B01o7y3G4-17" value="&lt;b&gt;&lt;font style=&quot;font-size: 20px;&quot;&gt;客户端&lt;/font&gt;&lt;/b&gt;" style="text;html=1;strokeColor=none;fillColor=none;align=center;verticalAlign=middle;whiteSpace=wrap;rounded=0;" vertex="1" parent="GDLcqrUv6K1B01o7y3G4-37">
          <mxGeometry x="40" y="75" width="120" height="30" as="geometry" />
        </mxCell>
        <mxCell id="GDLcqrUv6K1B01o7y3G4-18" value="&lt;span style=&quot;font-size: 20px;&quot;&gt;&lt;b&gt;服务端&lt;/b&gt;&lt;/span&gt;" style="text;html=1;strokeColor=none;fillColor=none;align=center;verticalAlign=middle;whiteSpace=wrap;rounded=0;" vertex="1" parent="GDLcqrUv6K1B01o7y3G4-37">
          <mxGeometry x="40" y="355" width="120" height="30" as="geometry" />
        </mxCell>
        <mxCell id="GDLcqrUv6K1B01o7y3G4-19" value="" style="endArrow=classic;html=1;rounded=0;exitX=0.282;exitY=1.005;exitDx=0;exitDy=0;exitPerimeter=0;entryX=0.286;entryY=-0.053;entryDx=0;entryDy=0;entryPerimeter=0;strokeWidth=2;strokeColor=#FF0000;" edge="1" parent="GDLcqrUv6K1B01o7y3G4-37" source="GDLcqrUv6K1B01o7y3G4-14" target="GDLcqrUv6K1B01o7y3G4-13">
          <mxGeometry width="50" height="50" relative="1" as="geometry">
            <mxPoint x="230" y="280" as="sourcePoint" />
            <mxPoint x="280" y="230" as="targetPoint" />
          </mxGeometry>
        </mxCell>
        <mxCell id="GDLcqrUv6K1B01o7y3G4-20" value="" style="endArrow=none;html=1;rounded=0;exitX=0.282;exitY=1.005;exitDx=0;exitDy=0;exitPerimeter=0;entryX=0.286;entryY=-0.053;entryDx=0;entryDy=0;entryPerimeter=0;strokeWidth=2;strokeColor=#FF0000;startArrow=classic;startFill=1;endFill=0;" edge="1" parent="GDLcqrUv6K1B01o7y3G4-37">
          <mxGeometry width="50" height="50" relative="1" as="geometry">
            <mxPoint x="141.5" y="144" as="sourcePoint" />
            <mxPoint x="142.5" y="200" as="targetPoint" />
          </mxGeometry>
        </mxCell>
        <mxCell id="GDLcqrUv6K1B01o7y3G4-22" value="" style="endArrow=classic;html=1;rounded=0;exitX=0.282;exitY=1.005;exitDx=0;exitDy=0;exitPerimeter=0;entryX=0.286;entryY=-0.053;entryDx=0;entryDy=0;entryPerimeter=0;strokeWidth=2;strokeColor=#FF0000;" edge="1" parent="GDLcqrUv6K1B01o7y3G4-37">
          <mxGeometry width="50" height="50" relative="1" as="geometry">
            <mxPoint x="55" y="261" as="sourcePoint" />
            <mxPoint x="56" y="317" as="targetPoint" />
          </mxGeometry>
        </mxCell>
        <mxCell id="GDLcqrUv6K1B01o7y3G4-23" value="" style="endArrow=none;html=1;rounded=0;exitX=0.282;exitY=1.005;exitDx=0;exitDy=0;exitPerimeter=0;entryX=0.286;entryY=-0.053;entryDx=0;entryDy=0;entryPerimeter=0;strokeWidth=2;strokeColor=#FF0000;startArrow=classic;startFill=1;endFill=0;" edge="1" parent="GDLcqrUv6K1B01o7y3G4-37">
          <mxGeometry width="50" height="50" relative="1" as="geometry">
            <mxPoint x="141.5" y="264" as="sourcePoint" />
            <mxPoint x="142.5" y="320" as="targetPoint" />
          </mxGeometry>
        </mxCell>
        <mxCell id="GDLcqrUv6K1B01o7y3G4-46" value="&lt;b&gt;&lt;font color=&quot;#ff0000&quot; style=&quot;font-size: 18px;&quot;&gt;特点：请求响应模式&lt;/font&gt;&lt;/b&gt;" style="text;html=1;strokeColor=none;fillColor=none;align=center;verticalAlign=middle;whiteSpace=wrap;rounded=0;" vertex="1" parent="GDLcqrUv6K1B01o7y3G4-49">
          <mxGeometry x="10" y="440" width="180" height="30" as="geometry" />
        </mxCell>
        <mxCell id="GDLcqrUv6K1B01o7y3G4-51" value="" style="group" vertex="1" connectable="0" parent="1">
          <mxGeometry x="672" y="40" width="200" height="470" as="geometry" />
        </mxCell>
        <mxCell id="GDLcqrUv6K1B01o7y3G4-26" value="&lt;b&gt;&lt;font style=&quot;font-size: 20px;&quot;&gt;ROS2&lt;/font&gt;&lt;/b&gt;" style="rounded=1;whiteSpace=wrap;html=1;fillColor=#f8cecc;strokeColor=#b85450;shadow=1;" vertex="1" parent="GDLcqrUv6K1B01o7y3G4-51">
          <mxGeometry y="200" width="200" height="60" as="geometry" />
        </mxCell>
        <mxCell id="GDLcqrUv6K1B01o7y3G4-27" value="" style="ellipse;whiteSpace=wrap;html=1;fillColor=#dae8fc;strokeColor=#6c8ebf;shadow=1;" vertex="1" parent="GDLcqrUv6K1B01o7y3G4-51">
          <mxGeometry y="40" width="200" height="100" as="geometry" />
        </mxCell>
        <mxCell id="GDLcqrUv6K1B01o7y3G4-29" value="&lt;b&gt;&lt;font style=&quot;font-size: 20px;&quot;&gt;动作通信&lt;/font&gt;&lt;/b&gt;" style="text;html=1;strokeColor=none;fillColor=none;align=center;verticalAlign=middle;whiteSpace=wrap;rounded=0;" vertex="1" parent="GDLcqrUv6K1B01o7y3G4-51">
          <mxGeometry x="40" width="120" height="30" as="geometry" />
        </mxCell>
        <mxCell id="GDLcqrUv6K1B01o7y3G4-30" value="&lt;b&gt;&lt;font style=&quot;font-size: 20px;&quot;&gt;动作客户端&lt;/font&gt;&lt;/b&gt;" style="text;html=1;strokeColor=none;fillColor=none;align=center;verticalAlign=middle;whiteSpace=wrap;rounded=0;" vertex="1" parent="GDLcqrUv6K1B01o7y3G4-51">
          <mxGeometry x="40" y="75" width="120" height="30" as="geometry" />
        </mxCell>
        <mxCell id="GDLcqrUv6K1B01o7y3G4-31" value="&lt;span style=&quot;font-size: 20px;&quot;&gt;&lt;b&gt;动作服务端&lt;/b&gt;&lt;/span&gt;" style="text;html=1;strokeColor=none;fillColor=none;align=center;verticalAlign=middle;whiteSpace=wrap;rounded=0;" vertex="1" parent="GDLcqrUv6K1B01o7y3G4-51">
          <mxGeometry x="40" y="355" width="120" height="30" as="geometry" />
        </mxCell>
        <mxCell id="GDLcqrUv6K1B01o7y3G4-32" value="" style="endArrow=classic;html=1;rounded=0;exitX=0.282;exitY=1.005;exitDx=0;exitDy=0;exitPerimeter=0;entryX=0.286;entryY=-0.053;entryDx=0;entryDy=0;entryPerimeter=0;strokeWidth=2;strokeColor=#FF0000;" edge="1" parent="GDLcqrUv6K1B01o7y3G4-51" source="GDLcqrUv6K1B01o7y3G4-27" target="GDLcqrUv6K1B01o7y3G4-26">
          <mxGeometry width="50" height="50" relative="1" as="geometry">
            <mxPoint x="230" y="280" as="sourcePoint" />
            <mxPoint x="280" y="230" as="targetPoint" />
          </mxGeometry>
        </mxCell>
        <mxCell id="GDLcqrUv6K1B01o7y3G4-33" value="" style="endArrow=none;html=1;rounded=0;exitX=0.282;exitY=1.005;exitDx=0;exitDy=0;exitPerimeter=0;entryX=0.286;entryY=-0.053;entryDx=0;entryDy=0;entryPerimeter=0;strokeWidth=2;strokeColor=#FF0000;startArrow=classic;startFill=1;endFill=0;" edge="1" parent="GDLcqrUv6K1B01o7y3G4-51">
          <mxGeometry width="50" height="50" relative="1" as="geometry">
            <mxPoint x="141.5" y="144" as="sourcePoint" />
            <mxPoint x="142.5" y="200" as="targetPoint" />
          </mxGeometry>
        </mxCell>
        <mxCell id="GDLcqrUv6K1B01o7y3G4-34" value="" style="endArrow=classic;html=1;rounded=0;exitX=0.282;exitY=1.005;exitDx=0;exitDy=0;exitPerimeter=0;entryX=0.286;entryY=-0.053;entryDx=0;entryDy=0;entryPerimeter=0;strokeWidth=2;strokeColor=#FF0000;" edge="1" parent="GDLcqrUv6K1B01o7y3G4-51">
          <mxGeometry width="50" height="50" relative="1" as="geometry">
            <mxPoint x="55" y="261" as="sourcePoint" />
            <mxPoint x="56" y="317" as="targetPoint" />
          </mxGeometry>
        </mxCell>
        <mxCell id="GDLcqrUv6K1B01o7y3G4-35" value="" style="endArrow=none;html=1;rounded=0;exitX=0.282;exitY=1.005;exitDx=0;exitDy=0;exitPerimeter=0;entryX=0.286;entryY=-0.053;entryDx=0;entryDy=0;entryPerimeter=0;strokeWidth=2;strokeColor=#FF0000;startArrow=classic;startFill=1;endFill=0;" edge="1" parent="GDLcqrUv6K1B01o7y3G4-51">
          <mxGeometry width="50" height="50" relative="1" as="geometry">
            <mxPoint x="141.5" y="264" as="sourcePoint" />
            <mxPoint x="142.5" y="320" as="targetPoint" />
          </mxGeometry>
        </mxCell>
        <mxCell id="GDLcqrUv6K1B01o7y3G4-38" value="" style="endArrow=none;html=1;rounded=0;exitX=0.282;exitY=1.005;exitDx=0;exitDy=0;exitPerimeter=0;entryX=0.286;entryY=-0.053;entryDx=0;entryDy=0;entryPerimeter=0;strokeWidth=2;strokeColor=#0000FF;startArrow=classic;startFill=1;endFill=0;" edge="1" parent="GDLcqrUv6K1B01o7y3G4-51">
          <mxGeometry width="50" height="50" relative="1" as="geometry">
            <mxPoint x="78" y="144" as="sourcePoint" />
            <mxPoint x="79" y="200" as="targetPoint" />
          </mxGeometry>
        </mxCell>
        <mxCell id="GDLcqrUv6K1B01o7y3G4-39" value="" style="endArrow=none;html=1;rounded=0;exitX=0.282;exitY=1.005;exitDx=0;exitDy=0;exitPerimeter=0;entryX=0.286;entryY=-0.053;entryDx=0;entryDy=0;entryPerimeter=0;strokeWidth=2;strokeColor=#0000FF;startArrow=classic;startFill=1;endFill=0;" edge="1" parent="GDLcqrUv6K1B01o7y3G4-51">
          <mxGeometry width="50" height="50" relative="1" as="geometry">
            <mxPoint x="100" y="144" as="sourcePoint" />
            <mxPoint x="101" y="200" as="targetPoint" />
          </mxGeometry>
        </mxCell>
        <mxCell id="GDLcqrUv6K1B01o7y3G4-40" value="" style="endArrow=none;html=1;rounded=0;exitX=0.282;exitY=1.005;exitDx=0;exitDy=0;exitPerimeter=0;entryX=0.286;entryY=-0.053;entryDx=0;entryDy=0;entryPerimeter=0;strokeWidth=2;strokeColor=#0000FF;startArrow=classic;startFill=1;endFill=0;" edge="1" parent="GDLcqrUv6K1B01o7y3G4-51">
          <mxGeometry width="50" height="50" relative="1" as="geometry">
            <mxPoint x="121" y="144" as="sourcePoint" />
            <mxPoint x="122" y="200" as="targetPoint" />
          </mxGeometry>
        </mxCell>
        <mxCell id="GDLcqrUv6K1B01o7y3G4-42" value="" style="endArrow=none;html=1;rounded=0;exitX=0.282;exitY=1.005;exitDx=0;exitDy=0;exitPerimeter=0;entryX=0.286;entryY=-0.053;entryDx=0;entryDy=0;entryPerimeter=0;strokeWidth=2;strokeColor=#0000FF;startArrow=classic;startFill=1;endFill=0;" edge="1" parent="GDLcqrUv6K1B01o7y3G4-51">
          <mxGeometry width="50" height="50" relative="1" as="geometry">
            <mxPoint x="78" y="265" as="sourcePoint" />
            <mxPoint x="79" y="321" as="targetPoint" />
          </mxGeometry>
        </mxCell>
        <mxCell id="GDLcqrUv6K1B01o7y3G4-43" value="" style="endArrow=none;html=1;rounded=0;exitX=0.282;exitY=1.005;exitDx=0;exitDy=0;exitPerimeter=0;entryX=0.286;entryY=-0.053;entryDx=0;entryDy=0;entryPerimeter=0;strokeWidth=2;strokeColor=#0000FF;startArrow=classic;startFill=1;endFill=0;" edge="1" parent="GDLcqrUv6K1B01o7y3G4-51">
          <mxGeometry width="50" height="50" relative="1" as="geometry">
            <mxPoint x="100" y="265" as="sourcePoint" />
            <mxPoint x="101" y="321" as="targetPoint" />
          </mxGeometry>
        </mxCell>
        <mxCell id="GDLcqrUv6K1B01o7y3G4-44" value="" style="endArrow=none;html=1;rounded=0;exitX=0.282;exitY=1.005;exitDx=0;exitDy=0;exitPerimeter=0;entryX=0.286;entryY=-0.053;entryDx=0;entryDy=0;entryPerimeter=0;strokeWidth=2;strokeColor=#0000FF;startArrow=classic;startFill=1;endFill=0;" edge="1" parent="GDLcqrUv6K1B01o7y3G4-51">
          <mxGeometry width="50" height="50" relative="1" as="geometry">
            <mxPoint x="121" y="265" as="sourcePoint" />
            <mxPoint x="122" y="321" as="targetPoint" />
          </mxGeometry>
        </mxCell>
        <mxCell id="GDLcqrUv6K1B01o7y3G4-50" value="" style="group" vertex="1" connectable="0" parent="GDLcqrUv6K1B01o7y3G4-51">
          <mxGeometry y="320" width="200" height="150" as="geometry" />
        </mxCell>
        <mxCell id="GDLcqrUv6K1B01o7y3G4-28" value="" style="ellipse;whiteSpace=wrap;html=1;fillColor=#dae8fc;strokeColor=#6c8ebf;shadow=1;" vertex="1" parent="GDLcqrUv6K1B01o7y3G4-50">
          <mxGeometry width="200" height="100" as="geometry" />
        </mxCell>
        <mxCell id="GDLcqrUv6K1B01o7y3G4-47" value="&lt;b&gt;&lt;font color=&quot;#ff0000&quot; style=&quot;font-size: 18px;&quot;&gt;特点：带有连续反馈&lt;/font&gt;&lt;/b&gt;" style="text;html=1;strokeColor=none;fillColor=none;align=center;verticalAlign=middle;whiteSpace=wrap;rounded=0;" vertex="1" parent="GDLcqrUv6K1B01o7y3G4-50">
          <mxGeometry x="10" y="120" width="180" height="30" as="geometry" />
        </mxCell>
        <mxCell id="GDLcqrUv6K1B01o7y3G4-71" value="&lt;span style=&quot;font-size: 20px;&quot;&gt;&lt;b&gt;动作服务端&lt;/b&gt;&lt;/span&gt;" style="text;html=1;strokeColor=none;fillColor=none;align=center;verticalAlign=middle;whiteSpace=wrap;rounded=0;" vertex="1" parent="GDLcqrUv6K1B01o7y3G4-50">
          <mxGeometry x="40" y="35" width="120" height="30" as="geometry" />
        </mxCell>
        <mxCell id="GDLcqrUv6K1B01o7y3G4-74" value="" style="group" vertex="1" connectable="0" parent="1">
          <mxGeometry x="925" y="40" width="205" height="470" as="geometry" />
        </mxCell>
        <mxCell id="GDLcqrUv6K1B01o7y3G4-52" value="" style="group" vertex="1" connectable="0" parent="GDLcqrUv6K1B01o7y3G4-74">
          <mxGeometry x="5" width="200" height="470" as="geometry" />
        </mxCell>
        <mxCell id="GDLcqrUv6K1B01o7y3G4-53" value="&lt;b&gt;&lt;font style=&quot;font-size: 20px;&quot;&gt;ROS2&lt;/font&gt;&lt;/b&gt;" style="rounded=1;whiteSpace=wrap;html=1;fillColor=#f8cecc;strokeColor=#b85450;shadow=1;" vertex="1" parent="GDLcqrUv6K1B01o7y3G4-52">
          <mxGeometry y="200" width="200" height="60" as="geometry" />
        </mxCell>
        <mxCell id="GDLcqrUv6K1B01o7y3G4-54" value="" style="ellipse;whiteSpace=wrap;html=1;fillColor=#dae8fc;strokeColor=#6c8ebf;shadow=1;" vertex="1" parent="GDLcqrUv6K1B01o7y3G4-52">
          <mxGeometry y="40" width="200" height="100" as="geometry" />
        </mxCell>
        <mxCell id="GDLcqrUv6K1B01o7y3G4-55" value="&lt;b&gt;&lt;font style=&quot;font-size: 20px;&quot;&gt;参数服务&lt;/font&gt;&lt;/b&gt;" style="text;html=1;strokeColor=none;fillColor=none;align=center;verticalAlign=middle;whiteSpace=wrap;rounded=0;" vertex="1" parent="GDLcqrUv6K1B01o7y3G4-52">
          <mxGeometry x="40" width="120" height="30" as="geometry" />
        </mxCell>
        <mxCell id="GDLcqrUv6K1B01o7y3G4-57" value="&lt;span style=&quot;font-size: 20px;&quot;&gt;&lt;b&gt;动作服务端&lt;/b&gt;&lt;/span&gt;" style="text;html=1;strokeColor=none;fillColor=none;align=center;verticalAlign=middle;whiteSpace=wrap;rounded=0;" vertex="1" parent="GDLcqrUv6K1B01o7y3G4-52">
          <mxGeometry x="40" y="355" width="120" height="30" as="geometry" />
        </mxCell>
        <mxCell id="GDLcqrUv6K1B01o7y3G4-58" value="" style="endArrow=none;html=1;rounded=0;exitX=0.282;exitY=1.005;exitDx=0;exitDy=0;exitPerimeter=0;entryX=0.286;entryY=-0.053;entryDx=0;entryDy=0;entryPerimeter=0;strokeWidth=2;strokeColor=#FF0000;startArrow=classic;startFill=1;endFill=0;" edge="1" parent="GDLcqrUv6K1B01o7y3G4-52" source="GDLcqrUv6K1B01o7y3G4-54" target="GDLcqrUv6K1B01o7y3G4-53">
          <mxGeometry width="50" height="50" relative="1" as="geometry">
            <mxPoint x="230" y="280" as="sourcePoint" />
            <mxPoint x="280" y="230" as="targetPoint" />
          </mxGeometry>
        </mxCell>
        <mxCell id="GDLcqrUv6K1B01o7y3G4-59" value="" style="endArrow=classic;html=1;rounded=0;entryX=0.286;entryY=-0.053;entryDx=0;entryDy=0;entryPerimeter=0;strokeWidth=2;strokeColor=#FF0000;startArrow=none;startFill=0;endFill=1;" edge="1" parent="GDLcqrUv6K1B01o7y3G4-52" source="GDLcqrUv6K1B01o7y3G4-72">
          <mxGeometry width="50" height="50" relative="1" as="geometry">
            <mxPoint x="141.5" y="144" as="sourcePoint" />
            <mxPoint x="142.5" y="200" as="targetPoint" />
          </mxGeometry>
        </mxCell>
        <mxCell id="GDLcqrUv6K1B01o7y3G4-60" value="" style="endArrow=none;html=1;rounded=0;exitX=0.282;exitY=1.005;exitDx=0;exitDy=0;exitPerimeter=0;entryX=0.286;entryY=-0.053;entryDx=0;entryDy=0;entryPerimeter=0;strokeWidth=2;strokeColor=#FF0000;startArrow=classic;startFill=1;endFill=0;" edge="1" parent="GDLcqrUv6K1B01o7y3G4-52">
          <mxGeometry width="50" height="50" relative="1" as="geometry">
            <mxPoint x="55" y="261" as="sourcePoint" />
            <mxPoint x="56" y="317" as="targetPoint" />
          </mxGeometry>
        </mxCell>
        <mxCell id="GDLcqrUv6K1B01o7y3G4-61" value="" style="endArrow=classic;html=1;rounded=0;exitX=0.282;exitY=1.005;exitDx=0;exitDy=0;exitPerimeter=0;entryX=0.286;entryY=-0.053;entryDx=0;entryDy=0;entryPerimeter=0;strokeWidth=2;strokeColor=#FF0000;startArrow=none;startFill=0;endFill=1;" edge="1" parent="GDLcqrUv6K1B01o7y3G4-52">
          <mxGeometry width="50" height="50" relative="1" as="geometry">
            <mxPoint x="141.5" y="264" as="sourcePoint" />
            <mxPoint x="142.5" y="320" as="targetPoint" />
          </mxGeometry>
        </mxCell>
        <mxCell id="GDLcqrUv6K1B01o7y3G4-68" value="" style="group" vertex="1" connectable="0" parent="GDLcqrUv6K1B01o7y3G4-52">
          <mxGeometry y="320" width="200" height="150" as="geometry" />
        </mxCell>
        <mxCell id="GDLcqrUv6K1B01o7y3G4-69" value="" style="ellipse;whiteSpace=wrap;html=1;fillColor=#dae8fc;strokeColor=#6c8ebf;shadow=1;" vertex="1" parent="GDLcqrUv6K1B01o7y3G4-68">
          <mxGeometry width="200" height="100" as="geometry" />
        </mxCell>
        <mxCell id="GDLcqrUv6K1B01o7y3G4-70" value="&lt;b&gt;&lt;font color=&quot;#ff0000&quot; style=&quot;font-size: 18px;&quot;&gt;特点：数据共享&lt;/font&gt;&lt;/b&gt;" style="text;html=1;strokeColor=none;fillColor=none;align=center;verticalAlign=middle;whiteSpace=wrap;rounded=0;" vertex="1" parent="GDLcqrUv6K1B01o7y3G4-68">
          <mxGeometry x="10" y="120" width="180" height="30" as="geometry" />
        </mxCell>
        <mxCell id="GDLcqrUv6K1B01o7y3G4-73" value="&lt;b&gt;&lt;font style=&quot;font-size: 20px;&quot;&gt;参数客户&lt;/font&gt;&lt;/b&gt;" style="text;html=1;strokeColor=none;fillColor=none;align=center;verticalAlign=middle;whiteSpace=wrap;rounded=0;" vertex="1" parent="GDLcqrUv6K1B01o7y3G4-68">
          <mxGeometry x="40" y="35" width="120" height="30" as="geometry" />
        </mxCell>
        <mxCell id="GDLcqrUv6K1B01o7y3G4-72" value="&lt;b&gt;&lt;font style=&quot;font-size: 16px;&quot;&gt;数据池&lt;/font&gt;&lt;/b&gt;" style="rounded=1;whiteSpace=wrap;html=1;fillColor=#d5e8d4;strokeColor=#82b366;" vertex="1" parent="GDLcqrUv6K1B01o7y3G4-52">
          <mxGeometry x="104" y="60" width="70" height="60" as="geometry" />
        </mxCell>
        <mxCell id="GDLcqrUv6K1B01o7y3G4-56" value="&lt;b&gt;&lt;font style=&quot;font-size: 20px;&quot;&gt;参数服务&lt;/font&gt;&lt;/b&gt;" style="text;html=1;strokeColor=none;fillColor=none;align=center;verticalAlign=middle;whiteSpace=wrap;rounded=0;" vertex="1" parent="GDLcqrUv6K1B01o7y3G4-74">
          <mxGeometry y="75" width="120" height="30" as="geometry" />
        </mxCell>
      </root>
    </mxGraphModel>
  </diagram>
</mxfile>
